<svg version="1.1" xmlns="http://www.w3.org/2000/svg" xmlns:xlink="http://www.w3.org/1999/xlink" xmlns:i="http://ns.adobe.com/AdobeIllustrator/10.0/" xmlns:sketch="http://www.bohemiancoding.com/sketch/ns" x="0px" y="0px" viewBox="0 0 640 480" xml:space="preserve" preserveAspectRatio="xMidYMid meet" 
"><rect x="0px" y="0px" width="100%" height="100%" fill="#000000"></rect><g class="logo-container-box logoContainerBox" transform="scale(0.99) translate(3.232338491112273,2.424227165453374)"><g class="containerBody" transform="scale(1.12) translate(-34.285714285714334,-25.71427808489119)"><g class="sampleTexts_1" transform="scale(1) translate(0,39.498695373535156)"><g class="logo--name svgLogoName_1 logoNameBox" transform="scale(1) translate(235.7050018310547,225.45257568359375)" fill="#ffffff"><path d="M18.12 2.54L18.12 2.54Q11.81 2.54 7.75-0.25L7.75-0.25L7.75-0.25Q3.69-3.03 1.84-7.63L1.84-7.63L1.84-7.63Q0-12.22 0-17.71L0-17.71L0-17.71Q0-22.30 1.23-26.69L1.23-26.69L1.23-26.69Q2.46-31.08 4.67-34.28L4.67-34.28L4.67-34.28Q6.89-37.47 9.59-38.62L9.59-38.62L9.59-38.62Q10.25-38.87 10.82-38.87L10.82-38.87L10.82-38.87Q12.55-38.87 14.51-37.23L14.51-37.23L14.51-37.23Q16.07-44.77 20.99-50.51L20.99-50.51L20.99-50.51Q25.91-56.25 32.55-59.29L32.55-59.29L32.55-59.29Q39.20-62.32 45.67-62.32L45.67-62.32L45.67-62.32Q53.30-62.32 58.26-57.93L58.26-57.93L58.26-57.93Q63.22-53.55 63.22-45.10L63.22-45.10L63.22-45.10Q63.22-35.34 57.03-24.11L57.03-24.11L57.03-24.11Q50.84-12.87 40.43-5.21L40.43-5.21L40.43-5.21Q30.01 2.46 18.12 2.54L18.12 2.54ZM17.14-2.30L17.14-2.30Q24.68-2.30 33.33-10.37L33.33-10.37L33.33-10.37Q41.98-18.45 47.97-29.52L47.97-29.52L47.97-29.52Q53.96-40.59 53.96-48.22L53.96-48.22L53.96-48.22Q53.96-52.89 51.54-55.27L51.54-55.27L51.54-55.27Q49.12-57.65 45.18-57.65L45.18-57.65L45.18-57.65Q40.43-57.65 35.26-54.37L35.26-54.37L35.26-54.37Q30.09-51.09 26.61-45.22L26.61-45.22L26.61-45.22Q23.12-39.36 23.12-31.98L23.12-31.98L23.12-31.98Q23.12-26.90 24.35-21.24L24.35-21.24L24.35-21.24Q24.52-20.91 24.52-20.25L24.52-20.25L24.52-20.25Q24.52-18.70 22.67-17.59L22.67-17.59L22.67-17.59Q20.83-16.48 18.70-16.48L18.70-16.48L18.70-16.48Q16.40-16.48 15.58-17.79L15.58-17.79L15.58-17.79Q14.19-20.01 13.65-23.53L13.65-23.53L13.65-23.53Q13.12-27.06 13.12-29.68L13.12-29.68L13.12-29.68Q10.58-28.54 8.61-23.98L8.61-23.98L8.61-23.98Q6.64-19.43 6.64-14.68L6.64-14.68L6.64-14.68Q6.64-9.35 9.35-5.82L9.35-5.82L9.35-5.82Q12.05-2.30 17.14-2.30L17.14-2.30ZM141.29 14.51L141.29 14.51Q134.56 14.84 130.91 12.26L130.91 12.26L130.91 12.26Q127.26 9.68 125.87 5.78L125.87 5.78L125.87 5.78Q124.48 1.89 123.41-4.67L123.41-4.67L123.41-4.67Q122.34-11.73 120.87-14.92L120.87-14.92L120.87-14.92Q115.78-5.99 111.27-0.16L111.27-0.16L111.27-0.16Q106.76 5.66 101.68 9.02L101.68 9.02L101.68 9.02Q96.60 12.38 90.61 12.38L90.61 12.38L90.61 12.38Q84.95 12.38 82.20 9.96L82.20 9.96L82.20 9.96Q79.46 7.54 79.46 3.36L79.46 3.36L79.46 3.36Q79.46-2.54 84.42-9.72L84.42-9.72L84.42-9.72Q89.38-16.89 97.46-21.85L97.46-21.85L97.46-21.85Q105.53-26.81 114.39-26.81L114.39-26.81L114.39-26.81Q116.77-26.81 118.41-26.49L118.41-26.49L118.41-26.49Q119.88-29.27 125.38-38.95L125.38-38.95L125.38-38.95Q129.89-46.74 130.22-47.64L130.22-47.64L130.22-47.64Q125.62-44.53 121.16-42.89L121.16-42.89L121.16-42.89Q116.69-41.25 111.85-41.25L111.85-41.25L111.85-41.25Q110.95-41.25 110.41-41.74L110.41-41.74L110.41-41.74Q109.88-42.23 109.88-42.89L109.88-42.89L109.88-42.89Q109.88-43.54 110.33-44.08L110.33-44.08L110.33-44.08Q110.78-44.61 111.68-44.69L111.68-44.69L111.68-44.69Q117.18-45.76 121.56-48.38L121.56-48.38L121.56-48.38Q125.95-51.00 129.11-54.20L129.11-54.20L129.11-54.20Q132.27-57.40 136.45-62.40L136.45-62.40L136.45-62.40Q136.94-63.30 138.74-63.88L138.74-63.88L138.74-63.88Q140.55-64.45 142.60-64.45L142.60-64.45L142.60-64.45Q144.65-64.45 145.92-63.92L145.92-63.92L145.92-63.92Q147.19-63.39 146.70-62.32L146.70-62.32L146.70-62.32Q143.09-55.51 135.14-41.16L135.14-41.16L135.14-41.16Q133.99-39.03 132.63-36.61L132.63-36.61L132.63-36.61Q131.28-34.19 129.64-31.16L129.64-31.16L129.64-31.16Q151.21-54.78 163.02-62.65L163.02-62.65L163.02-62.65Q163.67-63.06 164.57-63.06L164.57-63.06L164.57-63.06Q165.97-63.06 167.28-62.36L167.28-62.36L167.28-62.36Q168.59-61.66 168.59-60.84L168.59-60.84L168.59-60.84Q168.59-60.11 167.69-59.53L167.69-59.53L167.69-59.53Q161.46-55.51 152.73-47.48L152.73-47.48L152.73-47.48Q143.99-39.44 136.65-31.49L136.65-31.49L136.65-31.49Q129.31-23.53 127.51-20.50L127.51-20.50L127.51-20.50Q128.74-18.37 129.40-15.83L129.40-15.83L129.40-15.83Q130.05-13.28 130.71-9.18L130.71-9.18L130.71-9.18Q131.61-3.77 132.68-0.66L132.68-0.66L132.68-0.66Q133.74 2.46 136.49 4.59L136.49 4.59L136.49 4.59Q139.24 6.72 144.40 6.72L144.40 6.72L144.40 6.72Q146.29 6.72 147.52 6.97L147.52 6.97L147.52 6.97Q148.75 7.22 148.75 8.20L148.75 8.20L148.75 8.20Q148.75 9.27 146.70 11.32L146.70 11.32L146.70 11.32Q145.30 12.71 143.99 13.57L143.99 13.57L143.99 13.57Q142.68 14.43 141.29 14.51L141.29 14.51ZM88.56 8.20L88.56 8.20Q95.04 8.20 101.72 0.12L101.72 0.12L101.72 0.12Q108.40-7.95 115.13-20.34L115.13-20.34L115.13-20.34Q113.49-20.83 111.44-20.83L111.44-20.83L111.44-20.83Q104.06-20.83 97.21-16.81L97.21-16.81L97.21-16.81Q90.36-12.79 86.10-7.18L86.10-7.18L86.10-7.18Q81.84-1.56 81.84 2.79L81.84 2.79L81.84 2.79Q81.84 5.33 83.52 6.77L83.52 6.77L83.52 6.77Q85.20 8.20 88.56 8.20L88.56 8.20Z"></path></g><g id="" class="logo--name svgSloganText_1 sloganBox" transform="scale(1) translate(320,254.4)" fill="#0dd1ff"></g></g></g></g></svg>